<svg xmlns="http://www.w3.org/2000/svg" width="14" height="14" viewBox="0 0 14 14">
    <g fill="none" fill-rule="evenodd" opacity=".4">
        <path d="M-2-2h18v18H-2z"/>
        <path fill="#000" d="M10.512 4.412c0 1.763-1.487 3.197-3.316 3.197h-.327c-1.828 0-3.316-1.434-3.316-3.197V1.945a.401.401 0 1 1 .802 0v2.467c0 1.32 1.128 2.393 2.514 2.393h.327c1.387 0 2.515-1.073 2.515-2.393V1.945a.401.401 0 1 1 .801 0v2.467zM13.136 0H.832L0 12.644C0 13.393.606 14 1.354 14h11.292c.748 0 1.354-.607 1.354-1.356L13.136 0z"/>
    </g>
</svg>
