<svg xmlns="http://www.w3.org/2000/svg" width="16" height="16" viewBox="0 0 16 16">
    <g fill="none" fill-rule="evenodd">
        <path d="M-4-4h24v24H-4z"/>
        <path fill="#E70" fill-rule="nonzero" d="M15.538 12.528c-.612-.612-2.083-1.533-2.807-1.878-.842-.404-1.15-.396-1.746.033-.495.358-.816.692-1.387.567-.57-.121-1.695-.975-2.786-2.062C5.72 8.096 4.87 6.972 4.75 6.4c-.12-.575.213-.892.567-1.387.429-.596.441-.904.033-1.746C5.004 2.54 4.088 1.073 3.47.461c-.612-.612-.75-.48-1.087-.358 0 0-.5.2-.995.529-.612.408-.954.75-1.196 1.262-.237.512-.512 1.466.888 3.957 1.128 2.012 2.236 3.537 3.882 5.178l.004.004.004.004c1.645 1.645 3.165 2.754 5.177 3.882 2.49 1.4 3.445 1.125 3.957.888.512-.238.854-.58 1.262-1.196.33-.496.53-.995.53-.995.12-.338.257-.475-.36-1.088z"/>
    </g>
</svg>
