<svg xmlns="http://www.w3.org/2000/svg" width="18" height="18" viewBox="0 0 18 18">
    <g fill="none" fill-rule="evenodd">
        <path d="M-3-3h24v24H-3z"/>
        <path fill="#E70" fill-rule="nonzero" d="M9 5.727a3.272 3.272 0 1 0 0 6.546 3.272 3.272 0 1 0 0-6.546zm7.315 2.455a7.359 7.359 0 0 0-6.497-6.497V0H8.182v1.685a7.359 7.359 0 0 0-6.497 6.497H0v1.636h1.685a7.359 7.359 0 0 0 6.497 6.497V18h1.636v-1.685a7.359 7.359 0 0 0 6.497-6.497H18V8.182h-1.685zM9 14.727A5.723 5.723 0 0 1 3.273 9 5.723 5.723 0 0 1 9 3.273 5.723 5.723 0 0 1 14.727 9 5.723 5.723 0 0 1 9 14.727z"/>
    </g>
</svg>
