<svg xmlns="http://www.w3.org/2000/svg" width="35" height="36" viewBox="0 0 35 36">
    <g fill="#FFF" fill-rule="nonzero" opacity=".9">
        <path d="M14.318 18.265a3.447 3.447 0 1 0 6.894 0 3.447 3.447 0 0 0-6.894 0z"/>
        <path d="M9.95 12.352c.16-.435.416-.83.75-1.153.323-.333.716-.59 1.152-.75.353-.137.884-.3 1.861-.345 1.058-.048 1.375-.059 4.052-.059 2.677 0 2.994.01 4.052.059.977.045 1.508.208 1.861.345.436.16.83.417 1.153.75.333.324.59.717.75 1.153.137.353.3.884.345 1.862.048 1.057.059 1.374.059 4.051s-.01 2.994-.059 4.052c-.044.977-.208 1.508-.345 1.861-.16.436-.417.83-.75 1.153-.323.333-.717.59-1.153.75-.353.138-.884.301-1.861.346-1.058.048-1.374.058-4.052.058-2.677 0-2.994-.01-4.051-.058-.978-.045-1.509-.208-1.862-.346a3.32 3.32 0 0 1-1.903-1.903c-.137-.353-.3-.884-.345-1.861-.048-1.058-.059-1.375-.059-4.052 0-2.677.01-2.994.059-4.051.044-.978.208-1.509.345-1.862zm7.815 11.061a5.148 5.148 0 1 0 0-10.296 5.148 5.148 0 0 0 0 10.296zm-5.352-9.297a1.203 1.203 0 1 0 0-2.406 1.203 1.203 0 0 0 0 2.406z"/>
        <path d="M17.5.5C27.164.5 35 8.336 35 18s-7.836 17.5-17.5 17.5S0 27.664 0 18 7.836.5 17.5.5zM7.512 22.143c.048 1.07.218 1.8.467 2.44a5.138 5.138 0 0 0 2.939 2.938c.639.249 1.37.418 2.439.467 1.071.05 1.414.06 4.143.06s3.071-.01 4.143-.06c1.07-.049 1.8-.218 2.439-.467a4.923 4.923 0 0 0 1.78-1.159 4.925 4.925 0 0 0 1.159-1.78c.248-.639.418-1.37.467-2.439.05-1.072.06-1.414.06-4.143s-.01-3.071-.06-4.143c-.048-1.07-.218-1.8-.467-2.44a4.923 4.923 0 0 0-1.159-1.779 4.922 4.922 0 0 0-1.78-1.16c-.639-.248-1.37-.417-2.439-.466-1.072-.05-1.414-.06-4.143-.06s-3.071.01-4.143.06c-1.07.049-1.8.218-2.44.467a4.926 4.926 0 0 0-1.78 1.159 4.924 4.924 0 0 0-1.158 1.78c-.249.639-.419 1.37-.467 2.439-.05 1.072-.06 1.414-.06 4.143s.01 3.071.06 4.143z"/>
    </g>
</svg>
