<svg xmlns="http://www.w3.org/2000/svg" width="14" height="16" viewBox="0 0 14 16">
    <path fill="#E70" d="M5.346 14.986l.081.006c.514.078 1.084.118 1.695.118.245 0 .444.2.444.445 0 .246-.2.445-.445.445-.655 0-1.27-.044-1.829-.13-.241-.037-.408-.263-.371-.506.037-.243.257-.412.506-.372zM8.899 0c2.696 0 4.889 2.285 4.889 5.094 0 2.653-4.318 10.352-4.502 10.678-.078.14-.226.228-.387.228s-.31-.087-.387-.228C8.328 15.446 4.01 7.747 4.01 5.094 4.01 2.285 6.203 0 8.899 0zM1.84 13.75c.164-.182.445-.197.627-.033.403.358.863.643 1.362.845.11.045.196.132.241.24.046.11.046.232 0 .34-.044.11-.13.197-.24.242-.108.046-.23.046-.34 0-.592-.24-1.14-.58-1.618-1.006-.182-.165-.197-.446-.033-.628zM.325 10.58c.236-.066.481.072.547.309.143.54.347 1.063.607 1.557.076.14.072.309-.011.444-.083.136-.232.217-.391.212-.159-.004-.303-.092-.379-.232-.274-.507-.498-1.076-.683-1.743-.065-.237.073-.482.31-.547zm8.573-7.025c-.735 0-1.333.598-1.333 1.333 0 .736.598 1.334 1.333 1.334s1.333-.598 1.333-1.334c0-.735-.598-1.333-1.333-1.333z"/>
</svg>
