<svg xmlns="http://www.w3.org/2000/svg" width="18" height="16" viewBox="0 0 18 16">
    <g fill="none" fill-rule="evenodd">
        <path d="M-3-4h24v24H-3z"/>
        <path fill="#6f3c2f" fill-rule="nonzero" d="M16.927 3.303c.228 0 .412.185.412.413V15.44a.413.413 0 0 1-.412.413H1.073a.413.413 0 0 1-.412-.413V3.716c0-.228.184-.413.412-.413zM7.844 5.78h-5.12a.413.413 0 0 0-.412.413v3.633c0 .228.185.413.413.413h5.119a.413.413 0 0 0 .413-.413V6.193a.413.413 0 0 0-.413-.413zm7.431 0h-5.119a.413.413 0 0 0-.413.413v3.633c0 .228.185.413.413.413h5.12a.413.413 0 0 0 .412-.413V6.193a.413.413 0 0 0-.413-.413zM17.587 0c.228 0 .413.185.413.413v1.651a.413.413 0 0 1-.413.413H.413A.413.413 0 0 1 0 2.064V.413C0 .185.185 0 .413 0z"/>
    </g>
</svg>
