<svg xmlns="http://www.w3.org/2000/svg" width="18" height="13" viewBox="0 0 18 13" >
    <g fill="none" fill-rule="evenodd" opacity='0.7'>
        <path d="M-3-6h24v24H-3z" />
        <path fill="#000" d="M11.93 0c.999 0 2.058.698 2.559 1.543l1.304 2.2.726-.36c.397-.196 1.152-.252 1.321.265l.133.405c.153.466-.374.851-.767.962.354.353.574.84.574 1.375l-.002 6.188a.34.34 0 0 1-.34.34h-1.612a.34.34 0 0 1-.34-.34v-1.759H2.514v1.759c0 .188-.155.34-.34.34H.562a.34.34 0 0 1-.34-.34L.22 6.39c0-.535.22-1.022.574-1.375-.393-.11-.92-.496-.767-.962l.133-.405c.17-.517.924-.46 1.321-.264l.726.358 1.305-2.2C4.014.696 5.064 0 6.065 0h5.865zM3.34 6.807c-.487-.24-1.414-.31-1.622.324l-.163.498c-.208.635.58 1.126 1.116 1.22l1.51.267c.348.062.75-.099.866-.455l.097-.295c.117-.355-.112-.723-.43-.88zm11.32 0l-1.374.679c-.318.157-.547.525-.43.88l.097.295c.116.356.518.517.867.455l1.51-.266c.535-.095 1.323-.586 1.115-1.221l-.163-.498c-.208-.634-1.135-.565-1.622-.324z" opacity='0.7'/>
    </g>
</svg>
