<svg xmlns="http://www.w3.org/2000/svg" width="17" height="17" viewBox="0 0 17 17">
    <g fill="none" fill-rule="evenodd">
        <path d="M-1 0h18v18H-1z"/>
        <path fill="#6f3c2f" fill-rule="nonzero" d="M8.188 0c.477 0 .775.191 1.23.687l.365.41.184.197c.009.012.01.018.001.018.234.004.465-.043.661-.131.504-.27 1.099-.31 1.702-.07.45.36.72.9.738 1.468.011.164.052.324.12.474l.048.091.06.032c.078.038.16.068.244.09l.127.028.127.014c.578.018 1.117.288 1.516.807a1.964 1.964 0 0 1-.098 1.615 1.72 1.72 0 0 0-.132.508l-.006.107.053.079c.043.058.09.114.143.167l.081.076.136.108c.627.52.898.886.88 1.42 0 .478-.192.776-.689 1.231l-.409.364-.174.166c-.027.024-.04.033-.04.02-.005.234.042.464.13.66.27.504.309 1.099.07 1.703-.36.45-.9.72-1.469.737a1.384 1.384 0 0 0-.508.133l-.06.032-.047.092c-.03.067-.055.135-.074.205l-.024.105-.02.159c-.018.576-.288 1.117-.808 1.517-.534.2-1.13.161-1.614-.1a1.72 1.72 0 0 0-.508-.132l-.107-.005-.08.053a1.519 1.519 0 0 0-.167.144l-.078.083-.125.156-.039.044c-.538.607-.837.829-1.356.829-.477 0-.775-.192-1.23-.687l-.365-.41c-.127-.139-.216-.215-.184-.215a1.533 1.533 0 0 0-.639.131c-.503.27-1.097.308-1.702.07-.45-.361-.72-.9-.738-1.47a1.36 1.36 0 0 0-.132-.507l-.033-.062-.06-.032a1.39 1.39 0 0 0-.246-.09l-.127-.027-.128-.015c-.576-.018-1.115-.288-1.515-.806a1.967 1.967 0 0 1 .099-1.616 1.7 1.7 0 0 0 .132-.507l.004-.108-.052-.079a1.519 1.519 0 0 0-.144-.167l-.083-.078-.14-.11C.238 9.026 0 8.716 0 8.196c0-.478.191-.775.687-1.23l.41-.366.197-.184c.012-.009.018-.01.018 0a1.579 1.579 0 0 0-.131-.662c-.27-.502-.309-1.098-.07-1.702.362-.45.9-.72 1.47-.738.176-.01.349-.055.507-.132l.062-.034.032-.06c.039-.08.069-.161.09-.245l.028-.126.014-.128c.016-.575.283-1.114.799-1.516a1.968 1.968 0 0 1 1.615.099 1.7 1.7 0 0 0 .508.132l.105.004.08-.051c.059-.043.114-.091.168-.144l.078-.083.11-.14.054-.061C7.37.222 7.668 0 8.188 0zM6.692 4.773h-.147A1.703 1.703 0 0 0 4.92 6.408c-.04.94.692 1.733 1.633 1.771l.21.004c.3-.008.583-.103.824-.26l-1.99 3.119H6.91l1.431-2.236a1.646 1.646 0 1 0 3.146.684 1.64 1.64 0 0 0-1.63-1.647l-.094.002c-.47.023-.886.24-1.17.57l2.214-3.454H9.473L8.309 6.788c.005-.04.01-.082.012-.124l.004-.067v-.213a1.7 1.7 0 0 0-1.633-1.61zm3.08 4.338c.202 0 .308.112.308.378 0 .264-.107.378-.308.378-.202 0-.308-.113-.308-.378 0-.266.106-.378.308-.378zM6.62 6.157c.174-.007.32.13.326.303l-.003.131c-.017.183-.137.306-.294.32a.198.198 0 0 1-.026.002l-.076-.008a.307.307 0 0 1-.249-.297l.008-.146c.024-.219.13-.305.314-.305z"/>
    </g>
</svg>
