<svg xmlns="http://www.w3.org/2000/svg" width="35" height="36" viewBox="0 0 35 36">
    <path fill="#FFF" fill-rule="nonzero" d="M17.5.5C7.836.5 0 8.336 0 18s7.836 17.5 17.5 17.5S35 27.664 35 18 27.164.5 17.5.5zm7.99 13.645c.008.172.012.345.012.519 0 5.307-4.04 11.428-11.429 11.428a11.37 11.37 0 0 1-6.157-1.804c.315.037.635.056.958.056a8.06 8.06 0 0 0 4.99-1.72 4.021 4.021 0 0 1-3.753-2.79 3.998 3.998 0 0 0 1.814-.069 4.018 4.018 0 0 1-3.223-3.937l.001-.051c.541.3 1.16.482 1.82.502a4.013 4.013 0 0 1-1.788-3.343c0-.736.199-1.426.544-2.02a11.404 11.404 0 0 0 8.28 4.197 4.018 4.018 0 0 1 6.845-3.663 8.057 8.057 0 0 0 2.55-.975 4.032 4.032 0 0 1-1.767 2.222 8.011 8.011 0 0 0 2.307-.633 8.163 8.163 0 0 1-2.004 2.08z" opacity=".9"/>
</svg>
