<svg xmlns="http://www.w3.org/2000/svg" width="35" height="36" viewBox="0 0 35 36">
    <g fill="#FFF" fill-rule="nonzero" opacity=".9">
        <path d="M15.32 21.279L21.013 18l-5.693-3.279z"/>
        <path d="M17.5.5C7.836.5 0 8.336 0 18s7.836 17.5 17.5 17.5S35 27.664 35 18 27.164.5 17.5.5zm10.935 17.518s0 3.549-.45 5.26a2.74 2.74 0 0 1-1.928 1.928c-1.711.45-8.557.45-8.557.45s-6.828 0-8.557-.468a2.74 2.74 0 0 1-1.928-1.928c-.45-1.693-.45-5.26-.45-5.26s0-3.549.45-5.26a2.796 2.796 0 0 1 1.928-1.946c1.711-.45 8.557-.45 8.557-.45s6.846 0 8.557.468a2.74 2.74 0 0 1 1.928 1.928c.468 1.711.45 5.278.45 5.278z"/>
    </g>
</svg>
